<svg aria-hidden="true" style="position: absolute; width: 0; height: 0; overflow: hidden;" version="1.1" xmlns="http://www.w3.org/2000/svg" xmlns:xlink="http://www.w3.org/1999/xlink">
  <defs>
    <symbol id="icon-page" viewBox="0 0 32 32">
      <title>page</title>
      <path d="M29 5.5h-0.5v-3.5c0-0.827-0.673-1.5-1.5-1.5h-22c-0.827 0-1.5 0.673-1.5 1.5v3.5h-0.5c-1.379 0-2.5 1.122-2.5 2.5v15c0 1.378 1.121 2.5 2.5 2.5h10v1h-2.882c-0.572 0-1.086 0.317-1.342 0.829l-0.776 1.553v2.618h16v-2.618l-0.776-1.553c-0.256-0.512-0.77-0.829-1.341-0.829h-2.882v-1h10c1.378 0 2.5-1.122 2.5-2.5v-15c0-1.378-1.122-2.5-2.5-2.5zM29 6.5c0.827 0 1.5 0.673 1.5 1.5v12.5h-2v-14zM12 21.5h2v1h-1.5c-0.276 0-0.5-0.224-0.5-0.5zM15 21.5h2v1h-2zM18 21.5h2v0.5c0 0.276-0.224 0.5-0.5 0.5h-1.5zM4.5 20.5v-15h7.207l1-1h14.793v16zM5 1.5h22c0.276 0 0.5 0.224 0.5 0.5v1.5h-15.207l-1 1h-6.793v-2.5c0-0.276 0.224-0.5 0.5-0.5zM3 6.5h0.5v14h-2v-12.5c0-0.827 0.673-1.5 1.5-1.5zM10.118 27.5h2.882v1h-3.691l0.362-0.724c0.085-0.171 0.257-0.276 0.447-0.276zM9 30.5v-1h14v1zM21.882 27.5c0.191 0 0.362 0.106 0.448 0.276l0.361 0.724h-3.691v-1zM18 28.5h-4v-3h4zM29 24.5h-26c-0.827 0-1.5-0.673-1.5-1.5v-1.5h9.5v0.5c0 0.827 0.673 1.5 1.5 1.5h7c0.827 0 1.5-0.673 1.5-1.5v-0.5h9.5v1.5c0 0.827-0.673 1.5-1.5 1.5z"></path>
      <path d="M5.5 2.5h1v1h-1z"></path>
      <path d="M7.5 2.5h1v1h-1z"></path>
      <path d="M9.5 2.5h1v1h-1z"></path>
      <path d="M25 15.5v-3.5h-1.861l-2.139-1.283v-2.217h3.5v-3h-8v3h3.5v2.217l-2.139 1.283h-1.861v3.5h-1.5v4h4v-4h-1.5v-2.5h0.861l2.639 1.583 2.639-1.583h0.861v2.5h-1.5v4h4v-4zM17.5 6.5h6v1h-6zM17.5 18.5h-2v-2h2zM20.5 13.417l-1.529-0.917 1.529-0.917 1.529 0.917zM25.5 18.5h-2v-2h2z"></path>
      <path d="M5.5 19.5h8v-13h-8zM6.5 7.5h6v11h-6z"></path>
      <path d="M7.5 8.5h4v1h-4z"></path>
      <path d="M7.5 10.5h4v1h-4z"></path>
      <path d="M7.5 12.5h4v1h-4z"></path>
      <path d="M7.5 14.5h4v1h-4z"></path>
      <path d="M7.5 16.5h4v1h-4z"></path>
    </symbol>
    <symbol id="icon-code" viewBox="0 0 32 32">
      <title>code</title>
      <path d="M19.5 5.5c-3.86 0-7 3.14-7 7s3.14 7 7 7 7-3.14 7-7-3.14-7-7-7zM19.5 18.5c-3.308 0-6-2.691-6-6s2.692-6 6-6 6 2.691 6 6-2.692 6-6 6z"></path>
      <path d="M21.89 9.688l-0.781 0.625 1.75 2.188-1.75 2.188 0.781 0.625 2.25-2.813z"></path>
      <path d="M17.11 9.688l-2.25 2.813 2.25 2.813 0.781-0.625-1.75-2.188 1.75-2.188z"></path>
      <path d="M18.511 15.932l1.004-7 0.99 0.142-1.004 7z"></path>
      <path d="M29 5.5h-0.5v-3.5c0-0.827-0.673-1.5-1.5-1.5h-22c-0.827 0-1.5 0.673-1.5 1.5v3.5h-0.5c-1.379 0-2.5 1.122-2.5 2.5v15c0 1.378 1.121 2.5 2.5 2.5h10v1h-2.882c-0.572 0-1.085 0.317-1.341 0.829l-0.777 1.553v2.618h16v-2.618l-0.776-1.553c-0.256-0.512-0.77-0.829-1.341-0.829h-2.882v-1h10c1.378 0 2.5-1.122 2.5-2.5v-15c0-1.378-1.122-2.5-2.5-2.5zM29 6.5c0.827 0 1.5 0.673 1.5 1.5v12.5h-2v-14zM12 21.5h2v1h-1.5c-0.275 0-0.5-0.224-0.5-0.5zM15 21.5h2v1h-2zM18 21.5h2v0.5c0 0.276-0.224 0.5-0.5 0.5h-1.5zM4.5 20.5v-15h7.207l1-1h14.793v16zM5 1.5h22c0.276 0 0.5 0.224 0.5 0.5v1.5h-15.207l-1 1h-6.793v-2.5c0-0.276 0.224-0.5 0.5-0.5zM3 6.5h0.5v14h-2v-12.5c0-0.827 0.673-1.5 1.5-1.5zM10.118 27.5h2.882v1h-3.691l0.362-0.724c0.085-0.171 0.257-0.276 0.447-0.276zM9 30.5v-1h14v1zM21.882 27.5c0.191 0 0.362 0.106 0.447 0.276l0.362 0.724h-3.691v-1zM18 28.5h-4v-3h4zM29 24.5h-26c-0.827 0-1.5-0.673-1.5-1.5v-1.5h9.5v0.5c0 0.827 0.673 1.5 1.5 1.5h7c0.827 0 1.5-0.673 1.5-1.5v-0.5h9.5v1.5c0 0.827-0.673 1.5-1.5 1.5z"></path>
      <path d="M9.5 2.5h1v1h-1z"></path>
      <path d="M7.5 2.5h1v1h-1z"></path>
      <path d="M5.5 2.5h1v1h-1z"></path>
      <path d="M7.5 15.5h1v-9h-1v1h-2v1h2v1h-2v1h2v1h-2v1h2v1h-2v1h2z"></path>
      <path d="M9.5 7.5h2v1h-2z"></path>
      <path d="M9.5 9.5h2v1h-2z"></path>
      <path d="M9.5 11.5h2v1h-2z"></path>
      <path d="M9.5 13.5h2v1h-2z"></path>
      <path d="M5.5 16.5h1v1h-1z"></path>
      <path d="M7.5 16.5h4v1h-4z"></path>
      <path d="M5.5 18.5h6v1h-6z"></path>
    </symbol>
  </defs>
</svg>
