<svg id="Layer_5" enable-background="new 0 0 64 64" height="512" viewBox="0 0 64 64" width="512" xmlns="http://www.w3.org/2000/svg"><path d="m58 11h-1v-7c0-1.654-1.346-3-3-3h-44c-1.654 0-3 1.346-3 3v7h-1c-2.757 0-5 2.243-5 5v30c0 2.757 2.243 5 5 5h20v2h-5.764c-1.144 0-2.172.635-2.684 1.658l-1.552 3.106v5.236h32v-5.236l-1.553-3.106c-.511-1.023-1.54-1.658-2.683-1.658h-5.764v-2h20c2.757 0 5-2.243 5-5v-30c0-2.757-2.243-5-5-5zm0 2c1.654 0 3 1.346 3 3v25h-4v-28zm-34 30h4v2h-3c-.552 0-1-.449-1-1zm6 0h4v2h-4zm6 0h4v1c0 .551-.448 1-1 1h-3zm-27-2v-30h14.414l2-2h29.586v32zm1-38h44c.552 0 1 .449 1 1v3h-30.414l-2 2h-13.586v-5c0-.551.448-1 1-1zm-4 10h1v28h-4v-25c0-1.654 1.346-3 3-3zm14.236 42h5.764v2h-7.382l.724-1.447c.171-.341.513-.553.894-.553zm-2.236 6v-2h28v2zm25.764-6c.381 0 .724.212.895.553l.723 1.447h-7.382v-2zm-7.764 2h-8v-6h8zm22-8h-52c-1.654 0-3-1.346-3-3v-3h19v1c0 1.654 1.346 3 3 3h14c1.654 0 3-1.346 3-3v-1h19v3c0 1.654-1.346 3-3 3z"/><path d="m11 5h2v2h-2z"/><path d="m15 5h2v2h-2z"/><path d="m19 5h2v2h-2z"/><path d="m50 31v-7h-3.723l-4.277-2.566v-4.434h7v-6h-16v6h7v4.434l-4.277 2.566h-3.723v7h-3v8h8v-8h-3v-5h1.723l5.277 3.166 5.277-3.166h1.723v5h-3v8h8v-8zm-15-18h12v2h-12zm0 24h-4v-4h4zm6-10.166-3.057-1.834 3.057-1.834 3.057 1.834zm10 10.166h-4v-4h4z"/><path d="m11 39h16v-26h-16zm2-24h12v22h-12z"/><path d="m15 17h8v2h-8z"/><path d="m15 21h8v2h-8z"/><path d="m15 25h8v2h-8z"/><path d="m15 29h8v2h-8z"/><path d="m15 33h8v2h-8z"/></svg>